<svg width="15" height="16" viewBox="0 0 15 16" fill="none" xmlns="http://www.w3.org/2000/svg">
<g clip-path="url(#clip0_39_634)">
<path d="M7.27197 5.66256L9.38608 7.77667L9.39615 7.66593C9.39615 6.55518 8.49347 5.6525 7.38271 5.6525L7.27197 5.66256Z" fill="black"/>
<path d="M7.38248 4.31013C9.23484 4.31013 10.7382 5.81351 10.7382 7.66587C10.7382 8.09875 10.651 8.51151 10.5 8.89069L12.4631 10.8538C13.4765 10.0082 14.2752 8.9142 14.7685 7.66587C13.604 4.71955 10.7416 2.63228 7.38251 2.63228C6.4429 2.63228 5.54358 2.80005 4.70801 3.10207L6.15768 4.54838C6.53684 4.40073 6.94959 4.31013 7.38248 4.31013Z" fill="black"/>
<path d="M0.671134 2.48137L2.20134 4.01158L2.50673 4.31696C1.39934 5.18274 0.523493 6.33376 0 7.66596C1.16109 10.6123 4.02687 12.6995 7.38261 12.6995C8.42289 12.6995 9.41617 12.4982 10.3256 12.1324L10.6108 12.4177L12.5672 14.3774L13.4229 13.5251L1.52684 1.62566L0.671134 2.48137ZM4.38259 6.18945L5.41951 7.22637C5.3893 7.37068 5.36917 7.51495 5.36917 7.66596C5.36917 8.77672 6.27185 9.6794 7.38261 9.6794C7.53361 9.6794 7.67792 9.65926 7.81886 9.62906L8.85578 10.666C8.40946 10.8875 7.91283 11.0217 7.38261 11.0217C5.53025 11.0217 4.02687 9.51832 4.02687 7.66596C4.02687 7.13577 4.16111 6.63911 4.38259 6.18945Z" fill="black"/>
</g>
<defs>
<clipPath id="clip0_39_634">
<rect width="14.7685" height="14.7685" fill="white" transform="translate(0 0.617218)"/>
</clipPath>
</defs>
</svg>
