<svg width="24" height="24" viewBox="0 0 24 24" fill="none" xmlns="http://www.w3.org/2000/svg">
<path d="M6.57899 8.10125C6.78789 7.4397 7.35703 6.64794 7.76943 6.44493C7.95213 6.35625 8.0878 6.33548 8.53155 6.33524C9.05367 6.33524 9.07987 6.34061 9.21555 6.47595C9.3042 6.56976 9.54444 7.0801 9.88901 7.90313C10.1814 8.61159 10.4217 9.21573 10.4217 9.247C10.4217 9.39309 10.1293 9.85652 9.79522 10.2472C9.5655 10.5127 9.42983 10.7157 9.42983 10.7888C9.42983 10.8564 9.59685 11.1689 9.80575 11.4762C10.3122 12.2316 11.2467 13.1689 11.9726 13.6482C12.5415 14.0232 13.5546 14.5128 13.7581 14.5128C13.9097 14.5128 14.1865 14.2419 14.7502 13.5342C14.9802 13.2478 15.1837 13.0395 15.262 13.0238C15.3299 13.0028 15.4971 13.029 15.6328 13.081C16.0244 13.232 18.0034 14.1955 18.1077 14.2893C18.3115 14.4767 18.1445 15.5496 17.8415 15.9871C17.3767 16.6643 16.0506 17.2426 15.1785 17.1539C14.5416 17.0862 13.0379 16.5915 12.0615 16.1279C10.8084 15.5288 9.48738 14.4349 8.41694 13.0964C7.80592 12.3359 7.18976 11.4088 6.92356 10.8567C6.56332 10.1067 6.43279 9.52843 6.46928 8.86175C6.48495 8.57519 6.53712 8.23146 6.57899 8.10125Z" fill="#687076"/>
<path fill-rule="evenodd" clip-rule="evenodd" d="M0.605806 9.47615C1.58221 4.48127 5.57647 0.75722 10.709 0.0592638C11.4138 -0.0396752 13.3928 -0.00840669 14.0771 0.106169C14.7924 0.231005 15.7375 0.47579 16.3171 0.694679C20.1495 2.11648 22.9796 5.40324 23.7835 9.35645C24.1333 11.0804 24.0549 13.1015 23.5798 14.7994C22.4467 18.8202 19.1572 21.9871 15.0689 22.9975C12.4061 23.6536 9.60747 23.3671 7.08552 22.1901L6.46936 21.8984L3.24261 22.9244C1.4725 23.487 0.010708 23.9351 0.000177467 23.9246C-0.0103531 23.9141 0.449073 22.513 1.02874 20.8203L2.07812 17.7314L1.65519 16.893C0.48042 14.5336 0.120177 11.9814 0.605806 9.47615ZM21.7783 9.06989C20.7498 5.31969 17.4811 2.46021 13.6331 1.93937C11.5341 1.65818 9.55506 1.97601 7.73278 2.89261C3.31559 5.12181 1.21144 10.2159 2.80351 14.8201C3.00702 15.4086 3.55534 16.5182 3.89477 17.0286L4.16636 17.4348L3.56073 19.2057C3.22669 20.1797 2.9551 20.9977 2.9551 21.0184C2.9551 21.0443 3.79558 20.7944 4.81901 20.4714C5.84757 20.1434 6.70397 19.8776 6.71965 19.8776C6.74071 19.8776 6.94422 19.987 7.16879 20.1172C9.59669 21.5598 12.6251 21.8725 15.3559 20.9661C18.5516 19.9088 21.0106 17.2785 21.8356 14.0389C22.2378 12.4553 22.2169 10.6691 21.7783 9.06989Z" fill="#687076"/>
</svg>
